<svg width="52" height="55" viewBox="0 0 52 55" fill="none" xmlns="http://www.w3.org/2000/svg">
<rect x="0.518433" y="0.205292" width="50.6481" height="54.6136" rx="8" fill="#23BDEE"/>
<g clip-path="url(#clip0_411_272)">
<path d="M18.8784 12.4934C18.329 12.4934 17.8835 12.9737 17.8835 13.5662V15.7117H19.8733V13.5662C19.8733 12.9737 19.4279 12.4934 18.8784 12.4934Z" fill="white"/>
<path d="M32.8067 12.4934C32.2572 12.4934 31.8118 12.9737 31.8118 13.5662V15.7117H33.8015V13.5662C33.8015 12.9737 33.3561 12.4934 32.8067 12.4934Z" fill="white"/>
<path d="M36.7861 15.7117H33.8015V20.0028C33.8015 20.5953 33.3561 21.0755 32.8066 21.0755C32.2571 21.0755 31.8117 20.5953 31.8117 20.0028V15.7117H19.8733V20.0028C19.8733 20.5953 19.4278 21.0755 18.8784 21.0755C18.3289 21.0755 17.8835 20.5953 17.8835 20.0028V15.7117H14.8989C13.2506 15.7117 11.9143 17.1526 11.9143 18.93V39.3126C11.9143 41.09 13.2506 42.5309 14.8989 42.5309H36.7861C38.4345 42.5309 39.7707 41.09 39.7707 39.3126V18.93C39.7707 17.1526 38.4345 15.7117 36.7861 15.7117ZM37.781 39.3126C37.781 39.9051 37.3355 40.3854 36.7861 40.3854H14.8989C14.3494 40.3854 13.904 39.9051 13.904 39.3126V25.3666H37.781V39.3126Z" fill="white"/>
<path d="M19.8733 27.5121H17.8836C17.3341 27.5121 16.8887 27.9924 16.8887 28.5849C16.8887 29.1774 17.3341 29.6577 17.8836 29.6577H19.8733C20.4228 29.6577 20.8682 29.1774 20.8682 28.5849C20.8682 27.9924 20.4228 27.5121 19.8733 27.5121Z" fill="white"/>
<path d="M26.8374 27.5121H24.8477C24.2982 27.5121 23.8528 27.9924 23.8528 28.5849C23.8528 29.1774 24.2982 29.6577 24.8477 29.6577H26.8374C27.3869 29.6577 27.8323 29.1774 27.8323 28.5849C27.8323 27.9924 27.3869 27.5121 26.8374 27.5121Z" fill="white"/>
<path d="M33.8015 27.5121H31.8118C31.2623 27.5121 30.8169 27.9924 30.8169 28.5849C30.8169 29.1774 31.2623 29.6577 31.8118 29.6577H33.8015C34.351 29.6577 34.7964 29.1774 34.7964 28.5849C34.7964 27.9924 34.3509 27.5121 33.8015 27.5121Z" fill="white"/>
<path d="M19.8733 31.8032H17.8836C17.3341 31.8032 16.8887 32.2835 16.8887 32.8759C16.8887 33.4684 17.3341 33.9487 17.8836 33.9487H19.8733C20.4228 33.9487 20.8682 33.4684 20.8682 32.8759C20.8682 32.2835 20.4228 31.8032 19.8733 31.8032Z" fill="white"/>
<path d="M26.8374 31.8032H24.8477C24.2982 31.8032 23.8528 32.2835 23.8528 32.8759C23.8528 33.4684 24.2982 33.9487 24.8477 33.9487H26.8374C27.3869 33.9487 27.8323 33.4684 27.8323 32.8759C27.8323 32.2835 27.3869 31.8032 26.8374 31.8032Z" fill="white"/>
<path d="M33.8015 31.8032H31.8118C31.2623 31.8032 30.8169 32.2835 30.8169 32.8759C30.8169 33.4684 31.2623 33.9487 31.8118 33.9487H33.8015C34.351 33.9487 34.7964 33.4684 34.7964 32.8759C34.7963 32.2835 34.3509 31.8032 33.8015 31.8032Z" fill="white"/>
<path d="M19.8733 36.0942H17.8836C17.3341 36.0942 16.8887 36.5745 16.8887 37.167C16.8887 37.7595 17.3341 38.2397 17.8836 38.2397H19.8733C20.4228 38.2397 20.8682 37.7595 20.8682 37.167C20.8682 36.5745 20.4228 36.0942 19.8733 36.0942Z" fill="white"/>
<path d="M26.8374 36.0942H24.8477C24.2982 36.0942 23.8528 36.5745 23.8528 37.167C23.8528 37.7595 24.2982 38.2398 24.8477 38.2398H26.8374C27.3869 38.2398 27.8323 37.7595 27.8323 37.167C27.8323 36.5745 27.3869 36.0942 26.8374 36.0942Z" fill="white"/>
<path d="M33.8015 36.0942H31.8118C31.2623 36.0942 30.8169 36.5745 30.8169 37.167C30.8169 37.7595 31.2623 38.2398 31.8118 38.2398H33.8015C34.351 38.2398 34.7964 37.7595 34.7964 37.167C34.7964 36.5745 34.3509 36.0942 33.8015 36.0942Z" fill="white"/>
</g>
<defs>
<clipPath id="clip0_411_272">
<rect width="27.8564" height="30.0375" fill="white" transform="translate(11.9143 12.4934)"/>
</clipPath>
</defs>
</svg>
