<svg width="148" height="148" viewBox="0 0 148 148" fill="none" xmlns="http://www.w3.org/2000/svg">
<g filter="url(#filter0_d_411_255)">
<circle cx="74" cy="59" r="30" fill="#FBFBFB"/>
</g>
<path d="M65.5 59.5449C67.1547 59.5449 68.5 58.0864 68.5 56.2926C68.5 54.4988 67.1547 53.0403 65.5 53.0403C63.8453 53.0403 62.5 54.4988 62.5 56.2926C62.5 58.0864 63.8453 59.5449 65.5 59.5449ZM86.5 59.5449C88.1547 59.5449 89.5 58.0864 89.5 56.2926C89.5 54.4988 88.1547 53.0403 86.5 53.0403C84.8453 53.0403 83.5 54.4988 83.5 56.2926C83.5 58.0864 84.8453 59.5449 86.5 59.5449ZM88 61.171H85C84.175 61.171 83.4297 61.5318 82.8859 62.1162C84.775 63.2392 86.1156 65.2668 86.4062 67.6755H89.5C90.3297 67.6755 91 66.9488 91 66.0494V64.4233C91 62.6294 89.6547 61.171 88 61.171ZM76 61.171C78.9016 61.171 81.25 58.6251 81.25 55.4795C81.25 52.334 78.9016 49.7881 76 49.7881C73.0984 49.7881 70.75 52.334 70.75 55.4795C70.75 58.6251 73.0984 61.171 76 61.171ZM79.6 62.7971H79.2109C78.2359 63.3053 77.1531 63.6102 76 63.6102C74.8469 63.6102 73.7688 63.3053 72.7891 62.7971H72.4C69.4187 62.7971 67 65.4193 67 68.6512V70.1147C67 71.4614 68.0078 72.5539 69.25 72.5539H82.75C83.9922 72.5539 85 71.4614 85 70.1147V68.6512C85 65.4193 82.5812 62.7971 79.6 62.7971ZM69.1141 62.1162C68.5703 61.5318 67.825 61.171 67 61.171H64C62.3453 61.171 61 62.6294 61 64.4233V66.0494C61 66.9488 61.6703 67.6755 62.5 67.6755H65.5891C65.8844 65.2668 67.225 63.2392 69.1141 62.1162Z" fill="#23BDEE"/>
<defs>
<filter id="filter0_d_411_255" x="0" y="0" width="148" height="148" filterUnits="userSpaceOnUse" color-interpolation-filters="sRGB">
<feFlood flood-opacity="0" result="BackgroundImageFix"/>
<feColorMatrix in="SourceAlpha" type="matrix" values="0 0 0 0 0 0 0 0 0 0 0 0 0 0 0 0 0 0 127 0" result="hardAlpha"/>
<feOffset dy="15"/>
<feGaussianBlur stdDeviation="22"/>
<feColorMatrix type="matrix" values="0 0 0 0 0.0509804 0 0 0 0 0.0588235 0 0 0 0 0.109804 0 0 0 0.12 0"/>
<feBlend mode="normal" in2="BackgroundImageFix" result="effect1_dropShadow_411_255"/>
<feBlend mode="normal" in="SourceGraphic" in2="effect1_dropShadow_411_255" result="shape"/>
</filter>
</defs>
</svg>
